<?xml version="1.0" encoding="utf-8"?>
<!-- Generator: Adobe Illustrator 26.0.2, SVG Export Plug-In . SVG Version: 6.00 Build 0)  -->
<svg version="1.1" id="Layer_1" xmlns="http://www.w3.org/2000/svg" xmlns:xlink="http://www.w3.org/1999/xlink" x="0px" y="0px"
	 viewBox="0 0 39.5 34" style="enable-background:new 0 0 39.5 34;" xml:space="preserve">
<style type="text/css">
	.st0{fill:#FFFFFF;}
	.st1{fill:#CBCAC9;}
	.st2{fill:#522874;}
	.st3{fill:#431D68;}
</style>
<g>
	<circle class="st0" cx="20.1" cy="2.7" r="0.7"/>
	<rect x="20" y="3.3" class="st1" width="0.1" height="1.9"/>
	<path class="st0" d="M29.7,27.8h-19c-3,0-5.4-2.4-5.4-5.4v-8.8c0-3,2.4-5.4,5.4-5.4h19c3,0,5.4,2.4,5.4,5.4v8.8
		C35,25.3,32.6,27.8,29.7,27.8z"/>
	<path class="st2" d="M28.8,24.3H11.5c-1.6,0-2.9-1.3-2.9-2.9V13c0-1.6,1.3-2.9,2.9-2.9h17.3c1.6,0,2.9,1.3,2.9,2.9v8.3
		C31.7,23,30.4,24.3,28.8,24.3z"/>
	<path class="st0" d="M14.2,20.1c0,0,5.8,5,11.8,0C26,20.1,20.4,23.4,14.2,20.1z"/>
	<path class="st0" d="M12.6,8.1c0,0,0.8-2.9,7.6-2.9c0,0,6.4-0.2,7.4,2.9H12.6z"/>
	<path class="st0" d="M3.9,21.3h1.3C5.6,21.3,6,21,6,20.6v-6.2c0-0.4-0.3-0.7-0.7-0.7H3.9c-0.4,0-0.7,0.3-0.7,0.7v6.2
		C3.2,21,3.5,21.3,3.9,21.3z"/>
	<path class="st0" d="M35.2,21.3h1.3c0.4,0,0.7-0.3,0.7-0.7v-6.2c0-0.4-0.3-0.7-0.7-0.7h-1.3c-0.4,0-0.7,0.3-0.7,0.7v6.2
		C34.5,21,34.8,21.3,35.2,21.3z"/>
	<polyline class="st0" points="24.2,27.8 29.3,31.5 28.7,27.8 	"/>
	<path class="st3" d="M8.6,16.7l0-4.1c0,0,0.3-2.3,2.7-2.5l17.8,0c0,0,2.3,0.3,2.6,2.7v3.9c0,0-0.3-3.7-3-4.6l-17,0.1
		C11.6,12.2,9.4,13,8.6,16.7z"/>
</g>
<path class="st3" d="M27.2,16.3l-1.4,1.4c-0.3,0.3-0.7,0.3-1,0l-1.4-1.4c-0.3-0.3-0.3-0.7,0-1l1.4-1.4c0.3-0.3,0.7-0.3,1,0l1.4,1.4
	C27.5,15.6,27.5,16,27.2,16.3z"/>
<path class="st3" d="M17.4,16.3L16,17.7c-0.3,0.3-0.7,0.3-1,0l-1.4-1.4c-0.3-0.3-0.3-0.7,0-1l1.4-1.4c0.3-0.3,0.7-0.3,1,0l1.4,1.4
	C17.7,15.6,17.7,16,17.4,16.3z"/>
<path class="st0" d="M26.9,16.3l-1.4,1.4c-0.3,0.3-0.7,0.3-1,0l-1.4-1.4c-0.3-0.3-0.3-0.7,0-1l1.4-1.4c0.3-0.3,0.7-0.3,1,0l1.4,1.4
	C27.2,15.6,27.2,16,26.9,16.3z"/>
<path class="st0" d="M17.1,16.3l-1.4,1.4c-0.3,0.3-0.7,0.3-1,0l-1.4-1.4c-0.3-0.3-0.3-0.7,0-1l1.4-1.4c0.3-0.3,0.7-0.3,1,0l1.4,1.4
	C17.4,15.6,17.4,16,17.1,16.3z"/>
</svg>
