<svg width="147" height="375" viewBox="0 0 147 375" fill="none" xmlns="http://www.w3.org/2000/svg">
    <path d="M8.91187 332.47L282.102 59.28C291.422 49.96 306.542 49.96 315.862 59.28C325.182 68.6 325.182 83.72 315.862 93.04L42.6719 366.23C33.3519 375.55 18.2319 375.55 8.91187 366.23C-0.408125 356.9 -0.408125 341.79 8.91187 332.47Z" stroke="white" stroke-width="2" stroke-miterlimit="10"/>
    <path d="M25.5434 215.45L234.063 6.93009C241.183 -0.189912 252.713 -0.189912 259.833 6.93009C266.953 14.0501 266.953 25.5801 259.833 32.7001L51.3135 241.22C44.1935 248.34 32.6634 248.34 25.5434 241.22C18.4334 234.11 18.4334 222.57 25.5434 215.45Z" stroke="white" stroke-width="2" stroke-miterlimit="10"/>
    </svg>
    